<?xml version="1.0" standalone="no"?>
<!DOCTYPE svg PUBLIC "-//W3C//DTD SVG 20010904//EN"
 "http://www.w3.org/TR/2001/REC-SVG-20010904/DTD/svg10.dtd">
<svg version="1.0" xmlns="http://www.w3.org/2000/svg"
 width="3017.000000pt" height="3004.000000pt" viewBox="0 0 3017.000000 3004.000000"
 preserveAspectRatio="xMidYMid meet">

<g transform="translate(0.000000,3004.000000) scale(0.100000,-0.100000)"
fill="#000000" stroke="none">
<path d="M0 15020 l0 -15020 15085 0 15085 0 0 15020 0 15020 -15085 0 -15085
0 0 -15020z m30150 0 l0 -15000 -15065 0 -15065 0 0 15000 0 15000 15065 0
15065 0 0 -15000z"/>
<path d="M13725 26629 c-399 -28 -865 -119 -1295 -255 -510 -162 -1021 -400
-1500 -701 -988 -621 -1864 -1548 -2547 -2693 -514 -863 -803 -1680 -899
-2540 -13 -113 -18 -242 -18 -472 -1 -174 -4 -311 -8 -305 -3 7 -18 52 -32
101 -137 475 -156 1058 -51 1616 46 241 81 374 186 703 201 632 302 1085 350
1572 19 183 16 584 -5 739 -56 425 -193 750 -407 963 -70 70 -174 151 -183
142 -3 -2 12 -43 33 -90 21 -47 68 -160 104 -250 182 -459 221 -712 153 -994
-45 -182 -84 -279 -346 -840 -373 -800 -575 -1297 -841 -2070 -170 -493 -247
-840 -277 -1255 -7 -90 -10 -101 -20 -80 -6 14 -55 135 -108 269 -210 530
-416 939 -632 1256 -100 147 -172 233 -278 335 -143 137 -250 199 -358 207
l-61 4 35 -28 c246 -199 382 -406 499 -760 86 -260 162 -605 311 -1408 167
-898 340 -1721 439 -2081 188 -684 502 -1349 930 -1974 107 -156 85 -143 -129
77 -236 241 -417 473 -636 817 -488 765 -788 1155 -1185 1541 -398 387 -807
628 -1115 659 -64 6 -62 5 36 -26 267 -85 461 -268 618 -583 67 -135 137 -315
282 -725 221 -625 322 -874 510 -1255 546 -1106 1302 -2020 2271 -2747 349
-262 805 -544 1160 -719 72 -35 90 -49 104 -78 71 -150 304 -525 445 -716 84
-115 227 -291 260 -320 12 -11 26 -28 32 -38 9 -18 6 -19 -44 -12 -93 12 -276
55 -402 96 -873 279 -1896 1073 -2937 2279 -210 243 -464 560 -593 738 -21 29
-41 51 -43 48 -13 -13 41 -604 83 -901 223 -1591 778 -2813 1676 -3691 390
-381 796 -669 1293 -916 629 -314 1280 -512 2220 -674 413 -71 572 -109 805
-190 511 -177 939 -448 1305 -825 175 -182 292 -331 400 -514 l54 -90 -29
-102 c-53 -189 -74 -338 -74 -543 0 -211 14 -308 71 -480 64 -193 172 -371
319 -522 97 -100 171 -160 319 -256 158 -103 263 -206 364 -357 69 -104 158
-273 201 -383 l20 -53 -37 7 c-74 14 -214 64 -305 110 -599 299 -1095 1017
-1518 2194 -99 275 -99 276 -163 373 -140 213 -376 403 -712 573 -368 187
-826 336 -1210 394 -172 26 -229 39 -420 95 -238 70 -709 235 -983 344 l-53
21 80 -158 c422 -832 1291 -1934 2111 -2676 522 -473 983 -782 1395 -935 141
-52 237 -77 383 -96 521 -71 983 -278 1432 -644 177 -144 476 -453 575 -594
13 -18 23 -19 244 -12 l231 8 0 117 c0 65 7 154 15 197 106 559 675 1059 1735
1525 378 167 709 293 1533 587 1176 419 1313 484 1557 737 169 176 290 383
379 652 88 264 128 515 138 867 8 299 -20 655 -73 935 -8 45 -14 83 -12 85 24
18 201 112 443 233 429 214 817 394 1544 713 503 222 552 245 696 332 215 130
383 265 601 482 182 182 279 293 433 500 474 633 904 1523 1190 2458 79 259
80 265 36 192 -67 -110 -148 -209 -290 -350 -349 -349 -902 -752 -1535 -1117
-244 -141 -428 -235 -683 -347 -422 -187 -1033 -473 -1542 -721 -137 -67 -275
-133 -305 -147 -30 -14 -64 -30 -75 -35 -11 -5 0 10 25 33 145 135 467 346
1225 806 1268 768 1711 1053 2205 1417 430 316 614 499 834 826 406 603 738
1532 941 2630 19 105 35 201 34 213 0 12 -15 -23 -33 -78 -259 -795 -970
-1524 -2106 -2157 -290 -162 -684 -348 -995 -471 -194 -76 -208 -78 -77 -8
870 466 1583 1029 2069 1633 182 226 375 552 469 793 134 344 296 1012 368
1520 108 761 98 1451 -30 2095 -103 512 -297 1004 -536 1357 -77 113 -103 142
-94 102 26 -113 76 -463 96 -679 29 -309 29 -809 0 -1095 -62 -608 -211 -1134
-462 -1635 -153 -306 -334 -580 -538 -815 -105 -120 -347 -357 -415 -405 l-49
-34 21 34 c183 305 357 666 481 1000 275 740 372 1439 291 2093 -94 767 -305
1470 -649 2162 -148 299 -243 464 -415 725 -371 563 -788 1029 -1289 1439 -27
22 -21 13 89 -144 435 -622 735 -1224 916 -1844 301 -1030 236 -2059 -191
-3027 -178 -404 -439 -825 -725 -1169 -193 -232 -523 -566 -533 -537 -2 6 -16
113 -31 239 l-27 228 -18 -65 c-99 -355 -436 -748 -996 -1164 -623 -463 -1457
-918 -3070 -1676 -1146 -539 -1539 -748 -1796 -956 -464 -375 -751 -1004 -793
-1734 -4 -77 -11 -143 -14 -147 -19 -19 -298 252 -399 388 -197 264 -338 608
-338 824 0 178 130 509 368 935 142 255 358 610 370 610 4 0 50 -9 102 -20
410 -87 792 25 1091 320 85 84 195 218 185 227 -1 2 -34 -11 -71 -28 -131 -59
-191 -74 -305 -74 -95 0 -110 3 -162 28 -68 33 -151 119 -201 209 -52 93 -95
202 -197 502 -114 335 -153 434 -240 611 -239 486 -574 809 -951 919 -102 29
-256 49 -315 40 l-43 -6 45 -90 c69 -137 156 -338 214 -493 54 -147 130 -372
130 -387 0 -5 33 -87 74 -181 152 -354 219 -578 220 -732 1 -123 -23 -168
-100 -185 -73 -17 -209 25 -346 105 l-61 36 7 -53 c29 -212 37 -311 43 -518 5
-190 2 -261 -11 -369 -27 -210 -78 -361 -164 -488 -106 -156 -163 -319 -184
-525 -43 -421 145 -1007 449 -1399 54 -70 58 -81 89 -204 91 -373 166 -812
206 -1205 16 -166 17 -579 0 -695 -30 -213 -56 -279 -322 -835 -109 -227 -727
-1470 -735 -1478 -2 -2 -49 59 -106 134 -369 494 -753 921 -1087 1206 -89 76
-191 173 -227 215 -109 127 -241 335 -310 486 l-26 58 -27 -20 c-67 -48 -192
-202 -215 -264 -3 -7 -31 14 -68 49 -238 227 -769 557 -1499 932 -266 136
-318 171 -463 311 -319 308 -708 863 -1089 1550 -37 68 -68 125 -68 128 0 3
41 -32 91 -78 168 -155 167 -155 73 -2 -337 547 -581 1255 -698 2023 -22 144
-31 227 -51 443 -2 26 -1 47 3 47 4 -1 79 -97 167 -214 88 -117 161 -212 163
-211 1 1 -7 27 -18 59 -131 381 -164 940 -89 1514 34 266 119 682 139 682 4 0
58 -125 118 -277 97 -243 110 -271 104 -218 -4 33 -7 155 -6 270 0 224 19 388
70 625 60 282 179 650 282 880 l21 45 0 -180 c2 -267 23 -437 87 -695 171
-696 596 -1387 1219 -1983 249 -238 477 -422 850 -688 363 -258 716 -673 1039
-1218 50 -85 69 -106 191 -212 75 -66 140 -119 144 -119 4 0 36 46 71 103 98
157 346 525 464 687 185 254 353 459 552 675 149 162 227 272 312 441 85 170
186 463 228 659 8 39 17 77 19 86 4 10 -8 25 -32 42 -20 15 -67 56 -104 93
l-68 66 -6 -39 c-53 -319 -131 -574 -246 -805 -107 -213 -194 -332 -399 -543
-244 -251 -450 -518 -700 -908 -41 -64 -77 -117 -80 -117 -3 0 -24 38 -47 84
-130 262 -362 547 -812 996 -325 324 -606 584 -1311 1206 -516 457 -572 513
-705 718 -376 577 -480 1471 -289 2486 19 102 48 237 64 300 16 63 28 115 27
117 -1 1 -59 -89 -128 -200 -135 -216 -248 -410 -365 -627 -41 -75 -75 -128
-78 -120 -5 18 -40 210 -60 340 -49 308 -87 649 -106 950 -13 213 -13 709 0
920 82 1289 502 2372 1261 3250 124 144 379 400 519 522 591 516 1330 932
2160 1216 303 103 623 191 880 241 58 11 137 27 175 35 l70 14 -80 0 c-44 -1
-134 -5 -200 -9z m-4687 -3221 c-45 -111 -139 -402 -172 -535 -169 -675 -247
-1561 -232 -2638 3 -253 10 -539 15 -635 5 -96 13 -235 17 -307 4 -78 3 -133
-2 -132 -13 0 -168 185 -241 287 -441 617 -576 1401 -371 2152 37 137 54 181
61 160 3 -8 15 -132 26 -275 48 -614 65 -805 71 -805 4 0 12 62 19 138 74 799
277 1549 611 2248 56 119 207 394 216 394 2 0 -6 -24 -18 -52z m-1789 -1224
c-92 -203 -177 -497 -224 -769 -76 -439 -89 -1037 -34 -1610 38 -403 130 -941
229 -1340 21 -87 37 -161 35 -164 -3 -2 -40 70 -84 161 -276 576 -442 1102
-513 1633 -26 192 -31 625 -10 785 66 482 213 867 454 1187 59 78 168 196 175
190 2 -2 -11 -35 -28 -73z m17060 -519 c91 -718 93 -1374 6 -1915 -58 -354
-188 -764 -308 -967 -33 -56 -10 -36 34 30 161 239 401 690 500 937 134 337
194 578 206 830 l7 135 18 -60 c59 -189 82 -394 75 -660 -6 -205 -23 -318 -77
-509 -59 -211 -189 -477 -323 -661 -247 -338 -556 -608 -1007 -880 -178 -107
-724 -365 -739 -349 -3 2 18 28 45 57 231 241 541 652 727 962 185 308 371
683 474 955 203 536 310 1028 344 1580 11 185 7 524 -7 637 -4 26 -4 46 -1 43
3 -3 15 -77 26 -165z m1737 -1945 c14 -565 -51 -1033 -211 -1515 -311 -941
-940 -1620 -1870 -2020 -108 -47 -349 -135 -368 -135 -5 0 39 25 99 56 554
288 1014 678 1395 1184 429 570 719 1271 853 2065 19 115 53 395 61 505 3 47
9 112 12 145 l7 60 8 -40 c4 -22 11 -159 14 -305z m-19581 -295 c146 -670 324
-1251 471 -1542 29 -57 50 -103 48 -103 -2 0 -33 11 -70 25 -36 14 -68 25 -70
25 -12 0 2 -58 50 -203 97 -291 203 -550 311 -755 25 -48 39 -80 33 -72 -58
72 -267 333 -363 455 -65 83 -142 179 -170 215 -28 36 -80 102 -116 148 -35
46 -65 79 -67 73 -2 -6 6 -44 17 -83 12 -40 70 -246 130 -458 61 -212 137
-477 170 -589 33 -113 59 -206 57 -208 -4 -4 -163 325 -240 498 -282 637 -465
1145 -585 1624 -73 292 -122 614 -120 789 l0 71 15 -50 c184 -619 367 -1046
555 -1295 90 -120 112 -129 90 -37 -76 320 -174 883 -212 1222 -15 128 -18
471 -5 500 10 24 14 10 71 -250z m-1488 -1545 c364 -510 650 -998 777 -1325
58 -147 102 -242 168 -360 99 -175 305 -489 449 -685 323 -440 580 -769 824
-1056 33 -38 71 -83 84 -100 72 -87 219 -255 326 -374 28 -30 68 -75 89 -100
21 -25 78 -85 125 -135 133 -138 128 -139 -29 -6 -298 253 -474 416 -795 736
-507 504 -852 912 -1152 1360 -214 320 -318 533 -511 1040 -138 361 -342 866
-415 1025 -75 165 -71 164 60 -20z m16959 -920 c-7 -318 -25 -487 -78 -710
-61 -260 -173 -516 -294 -677 -53 -70 -2 -26 154 132 89 91 165 165 168 165 9
0 -3 -192 -22 -385 -73 -727 -221 -1321 -438 -1756 -101 -202 -220 -372 -341
-488 -36 -35 -64 -65 -61 -68 2 -2 95 32 206 77 111 45 204 79 206 77 5 -5
-83 -353 -123 -487 -13 -47 -27 -94 -30 -105 -18 -69 -73 -246 -128 -410 -117
-353 -219 -611 -341 -860 -71 -147 -100 -200 -172 -320 -131 -218 -311 -408
-445 -471 l-49 -22 -32 36 c-18 21 -71 84 -117 142 -94 117 -169 208 -307 374
-52 61 -126 149 -165 196 -39 47 -105 123 -146 170 -42 47 -98 112 -126 145
-227 269 -674 716 -764 765 -30 16 -27 2 23 -98 222 -444 382 -1000 451 -1562
22 -176 30 -572 16 -750 -64 -806 -360 -1518 -883 -2125 -94 -109 -340 -353
-464 -461 -127 -109 -350 -284 -363 -284 -3 0 -2 66 2 148 10 162 -4 507 -29
732 -131 1195 -567 2311 -1317 3371 l-47 67 0 123 c0 377 65 1010 146 1419 82
414 199 752 332 953 177 270 695 684 1262 1010 360 207 1021 517 1595 748 55
23 118 49 140 59 22 10 119 50 215 90 871 362 1306 575 1674 822 285 191 490
378 634 578 l47 65 8 -80 c5 -44 6 -199 3 -345z m4094 -1357 c-53 -359 -246
-718 -539 -1001 -504 -487 -1260 -791 -2316 -932 -38 -5 -99 -11 -135 -14 -75
-6 -80 -8 155 55 1110 299 2043 902 2652 1714 49 66 111 153 137 194 26 40 50
71 52 68 3 -3 0 -41 -6 -84z m-18750 -3583 c131 -155 536 -564 690 -697 364
-315 664 -520 941 -644 148 -66 187 -79 399 -135 268 -71 472 -136 730 -231
231 -86 367 -144 665 -284 28 -12 109 -54 180 -92 876 -468 1523 -1055 1957
-1777 25 -41 51 -86 58 -100 7 -13 -58 48 -146 136 -351 354 -726 621 -1199
854 -341 167 -610 265 -1010 366 -389 98 -647 183 -925 306 -297 131 -618 317
-885 511 -87 63 -151 111 -155 116 -3 3 -39 33 -80 66 -165 131 -464 424 -637
625 -177 204 -425 552 -535 750 -14 25 -40 70 -58 100 -38 65 -160 307 -160
317 1 10 37 -30 170 -187z m16885 -220 c-18 -29 -449 -378 -675 -546 -307
-230 -513 -361 -760 -486 -96 -48 -170 -88 -165 -88 19 0 212 39 320 65 469
112 892 277 1191 465 102 64 239 164 267 195 41 45 8 -9 -50 -82 -126 -160
-349 -360 -528 -474 -130 -84 -170 -105 -300 -161 -481 -209 -993 -220 -1558
-34 -115 38 -277 102 -290 116 -5 4 29 17 75 29 846 223 1850 627 2398 964 82
51 84 52 75 37z m-8599 -1567 c288 -886 376 -1688 259 -2371 -36 -208 -68
-309 -250 -792 -325 -863 -500 -1477 -561 -1967 -17 -144 -18 -452 0 -550 7
-40 9 -70 5 -67 -26 16 -178 274 -293 495 -245 475 -415 935 -473 1284 -21
124 -23 368 -4 445 30 124 102 320 224 600 91 212 103 239 297 680 540 1230
739 1847 740 2307 1 94 6 87 56 -64z m4034 -2108 c-99 -584 -328 -1059 -690
-1431 -196 -201 -387 -338 -720 -516 -36 -19 -130 -71 -210 -115 -80 -44 -181
-99 -225 -123 -44 -24 -143 -78 -220 -120 -77 -43 -174 -95 -215 -117 -558
-298 -891 -490 -1100 -635 -68 -48 -105 -69 -90 -52 93 105 126 142 220 244
280 306 739 768 930 936 297 261 499 405 684 486 489 216 1042 654 1357 1074
132 175 252 400 285 535 l9 34 3 -37 c2 -21 -6 -94 -18 -163z m-8820 -907
c104 -33 319 -132 445 -205 183 -106 451 -297 590 -418 277 -243 403 -382 576
-640 215 -319 614 -808 927 -1136 l44 -47 -63 18 c-249 71 -559 234 -894 468
-355 249 -711 582 -864 807 -19 28 -61 104 -93 170 -127 257 -360 549 -702
883 -75 73 -136 135 -136 139 0 9 69 -7 170 -39z"/>
<path d="M3752 17190 c4 -8 38 -89 76 -180 232 -554 421 -1202 512 -1765 58
-358 65 -448 61 -825 -10 -887 -8 -924 50 -1270 103 -617 343 -1254 669 -1780
178 -286 344 -495 579 -731 356 -355 709 -592 1136 -762 135 -54 394 -137 425
-137 8 0 -25 22 -75 48 -97 52 -98 53 -225 134 -559 362 -1008 940 -1227 1582
-82 240 -92 289 -248 1141 -189 1040 -239 1287 -350 1755 -304 1280 -696 2137
-1212 2647 -102 100 -180 166 -171 143z"/>
<path d="M26661 17144 c0 -11 3 -14 6 -6 3 7 2 16 -1 19 -3 4 -6 -2 -5 -13z"/>
<path d="M24050 10119 c-272 -247 -705 -488 -1130 -629 -177 -59 -271 -82
-464 -115 -177 -30 -314 -74 -481 -154 -201 -96 -465 -260 -632 -393 l-63 -49
19 -37 c31 -62 78 -202 96 -291 49 -240 34 -553 -41 -846 -56 -219 -144 -456
-244 -655 -27 -55 -47 -100 -42 -100 12 0 186 115 291 192 598 443 1425 1352
2341 2573 242 322 413 555 407 555 -1 0 -27 -23 -57 -51z"/>
<path d="M5897 9443 c442 -476 766 -901 1013 -1329 147 -254 234 -369 430
-565 645 -646 1684 -1167 2648 -1328 186 -31 393 -56 410 -50 6 2 -78 96 -185
209 -524 549 -1085 1147 -1370 1460 -257 283 -589 547 -1085 864 -479 305
-1057 603 -1438 741 -197 71 -413 125 -500 125 l-42 0 119 -127z"/>
</g>
</svg>
